<mxfile host="app.diagrams.net" agent="Mozilla/5.0 (Windows NT 10.0; Win64; x64) AppleWebKit/537.36 (KHTML, like Gecko) Chrome/133.0.0.0 Safari/537.36" version="26.0.5">
  <diagram name="Страница — 1" id="J9iXIoJpZffIBml4_Rv1">
    <mxGraphModel dx="2150" dy="942" grid="1" gridSize="10" guides="1" tooltips="1" connect="1" arrows="1" fold="1" page="1" pageScale="1" pageWidth="827" pageHeight="1169" math="0" shadow="0">
      <root>
        <mxCell id="0" />
        <mxCell id="1" parent="0" />
        <mxCell id="QtfCz6NtTxin8dq7Kua--1" value="drive_car" style="shape=ellipse;html=1;dashed=0;whiteSpace=wrap;perimeter=ellipsePerimeter;" vertex="1" parent="1">
          <mxGeometry x="364" y="80" width="100" height="50" as="geometry" />
        </mxCell>
        <mxCell id="QtfCz6NtTxin8dq7Kua--5" style="edgeStyle=orthogonalEdgeStyle;rounded=0;orthogonalLoop=1;jettySize=auto;html=1;exitX=0.5;exitY=1;exitDx=0;exitDy=0;exitPerimeter=0;entryX=0.5;entryY=0;entryDx=0;entryDy=0;" edge="1" parent="1" source="QtfCz6NtTxin8dq7Kua--2" target="QtfCz6NtTxin8dq7Kua--4">
          <mxGeometry relative="1" as="geometry" />
        </mxCell>
        <mxCell id="QtfCz6NtTxin8dq7Kua--2" value="Если команда &quot;вперед&quot; и автомобиль не едет вперед" style="strokeWidth=2;html=1;shape=mxgraph.flowchart.decision;whiteSpace=wrap;" vertex="1" parent="1">
          <mxGeometry x="309" y="180" width="210" height="100" as="geometry" />
        </mxCell>
        <mxCell id="QtfCz6NtTxin8dq7Kua--3" style="edgeStyle=orthogonalEdgeStyle;rounded=0;orthogonalLoop=1;jettySize=auto;html=1;exitX=0.5;exitY=1;exitDx=0;exitDy=0;entryX=0.5;entryY=0;entryDx=0;entryDy=0;entryPerimeter=0;" edge="1" parent="1" source="QtfCz6NtTxin8dq7Kua--1" target="QtfCz6NtTxin8dq7Kua--2">
          <mxGeometry relative="1" as="geometry" />
        </mxCell>
        <mxCell id="QtfCz6NtTxin8dq7Kua--4" value="движение вперед" style="rounded=0;whiteSpace=wrap;html=1;" vertex="1" parent="1">
          <mxGeometry x="354" y="320" width="120" height="60" as="geometry" />
        </mxCell>
        <mxCell id="QtfCz6NtTxin8dq7Kua--21" style="edgeStyle=orthogonalEdgeStyle;rounded=0;orthogonalLoop=1;jettySize=auto;html=1;exitX=0.5;exitY=1;exitDx=0;exitDy=0;exitPerimeter=0;entryX=0.5;entryY=0;entryDx=0;entryDy=0;" edge="1" parent="1" source="QtfCz6NtTxin8dq7Kua--7" target="QtfCz6NtTxin8dq7Kua--20">
          <mxGeometry relative="1" as="geometry" />
        </mxCell>
        <mxCell id="QtfCz6NtTxin8dq7Kua--7" value="Если команда &quot;назад&quot; и&lt;div&gt;&lt;span style=&quot;background-color: transparent; color: light-dark(rgb(0, 0, 0), rgb(255, 255, 255));&quot;&gt;автомобиль не едет назад&lt;/span&gt;&lt;/div&gt;" style="strokeWidth=2;html=1;shape=mxgraph.flowchart.decision;whiteSpace=wrap;" vertex="1" parent="1">
          <mxGeometry x="309" y="460" width="210" height="100" as="geometry" />
        </mxCell>
        <mxCell id="QtfCz6NtTxin8dq7Kua--8" style="edgeStyle=orthogonalEdgeStyle;rounded=0;orthogonalLoop=1;jettySize=auto;html=1;exitX=0.5;exitY=1;exitDx=0;exitDy=0;entryX=0.5;entryY=0;entryDx=0;entryDy=0;entryPerimeter=0;" edge="1" parent="1" source="QtfCz6NtTxin8dq7Kua--4" target="QtfCz6NtTxin8dq7Kua--7">
          <mxGeometry relative="1" as="geometry" />
        </mxCell>
        <mxCell id="QtfCz6NtTxin8dq7Kua--11" value="" style="endArrow=none;html=1;rounded=0;" edge="1" parent="1">
          <mxGeometry width="50" height="50" relative="1" as="geometry">
            <mxPoint x="560" y="420" as="sourcePoint" />
            <mxPoint x="560" y="230" as="targetPoint" />
          </mxGeometry>
        </mxCell>
        <mxCell id="QtfCz6NtTxin8dq7Kua--12" value="" style="endArrow=none;html=1;rounded=0;" edge="1" parent="1">
          <mxGeometry width="50" height="50" relative="1" as="geometry">
            <mxPoint x="519" y="229.82999999999998" as="sourcePoint" />
            <mxPoint x="560" y="230" as="targetPoint" />
          </mxGeometry>
        </mxCell>
        <mxCell id="QtfCz6NtTxin8dq7Kua--15" value="" style="endArrow=none;html=1;rounded=0;" edge="1" parent="1">
          <mxGeometry width="50" height="50" relative="1" as="geometry">
            <mxPoint x="414" y="420" as="sourcePoint" />
            <mxPoint x="560" y="420" as="targetPoint" />
          </mxGeometry>
        </mxCell>
        <mxCell id="QtfCz6NtTxin8dq7Kua--17" value="" style="shape=waypoint;sketch=0;fillStyle=solid;size=6;pointerEvents=1;points=[];fillColor=none;resizable=0;rotatable=0;perimeter=centerPerimeter;snapToPoint=1;" vertex="1" parent="1">
          <mxGeometry x="404" y="410" width="20" height="20" as="geometry" />
        </mxCell>
        <mxCell id="QtfCz6NtTxin8dq7Kua--28" style="edgeStyle=orthogonalEdgeStyle;rounded=0;orthogonalLoop=1;jettySize=auto;html=1;exitX=0.5;exitY=1;exitDx=0;exitDy=0;exitPerimeter=0;entryX=0.5;entryY=0;entryDx=0;entryDy=0;" edge="1" parent="1" source="QtfCz6NtTxin8dq7Kua--19" target="QtfCz6NtTxin8dq7Kua--27">
          <mxGeometry relative="1" as="geometry" />
        </mxCell>
        <mxCell id="QtfCz6NtTxin8dq7Kua--19" value="Если команда &quot;стоп&quot; и&lt;div&gt;автомобиль не стоит&lt;/div&gt;" style="strokeWidth=2;html=1;shape=mxgraph.flowchart.decision;whiteSpace=wrap;" vertex="1" parent="1">
          <mxGeometry x="312" y="790" width="204" height="100" as="geometry" />
        </mxCell>
        <mxCell id="QtfCz6NtTxin8dq7Kua--20" value="движение назад" style="rounded=0;whiteSpace=wrap;html=1;" vertex="1" parent="1">
          <mxGeometry x="354" y="620" width="120" height="60" as="geometry" />
        </mxCell>
        <mxCell id="QtfCz6NtTxin8dq7Kua--22" style="edgeStyle=orthogonalEdgeStyle;rounded=0;orthogonalLoop=1;jettySize=auto;html=1;exitX=0.5;exitY=1;exitDx=0;exitDy=0;entryX=0.5;entryY=0;entryDx=0;entryDy=0;entryPerimeter=0;" edge="1" parent="1" source="QtfCz6NtTxin8dq7Kua--20" target="QtfCz6NtTxin8dq7Kua--19">
          <mxGeometry relative="1" as="geometry" />
        </mxCell>
        <mxCell id="QtfCz6NtTxin8dq7Kua--23" value="" style="endArrow=none;html=1;rounded=0;" edge="1" parent="1">
          <mxGeometry width="50" height="50" relative="1" as="geometry">
            <mxPoint x="414" y="740" as="sourcePoint" />
            <mxPoint x="560" y="740" as="targetPoint" />
          </mxGeometry>
        </mxCell>
        <mxCell id="QtfCz6NtTxin8dq7Kua--24" value="" style="endArrow=none;html=1;rounded=0;" edge="1" parent="1">
          <mxGeometry width="50" height="50" relative="1" as="geometry">
            <mxPoint x="560" y="740" as="sourcePoint" />
            <mxPoint x="560" y="515" as="targetPoint" />
          </mxGeometry>
        </mxCell>
        <mxCell id="QtfCz6NtTxin8dq7Kua--25" value="" style="endArrow=none;html=1;rounded=0;" edge="1" parent="1">
          <mxGeometry width="50" height="50" relative="1" as="geometry">
            <mxPoint x="519" y="514.76" as="sourcePoint" />
            <mxPoint x="560" y="515" as="targetPoint" />
          </mxGeometry>
        </mxCell>
        <mxCell id="QtfCz6NtTxin8dq7Kua--26" value="" style="shape=waypoint;sketch=0;fillStyle=solid;size=6;pointerEvents=1;points=[];fillColor=none;resizable=0;rotatable=0;perimeter=centerPerimeter;snapToPoint=1;" vertex="1" parent="1">
          <mxGeometry x="404" y="730" width="20" height="20" as="geometry" />
        </mxCell>
        <mxCell id="QtfCz6NtTxin8dq7Kua--27" value="автомобиль останавливается" style="rounded=0;whiteSpace=wrap;html=1;" vertex="1" parent="1">
          <mxGeometry x="354" y="960" width="120" height="60" as="geometry" />
        </mxCell>
        <mxCell id="QtfCz6NtTxin8dq7Kua--30" style="edgeStyle=orthogonalEdgeStyle;rounded=0;orthogonalLoop=1;jettySize=auto;html=1;exitX=0.5;exitY=1;exitDx=0;exitDy=0;entryX=0.5;entryY=0;entryDx=0;entryDy=0;entryPerimeter=0;" edge="1" parent="1" source="QtfCz6NtTxin8dq7Kua--27">
          <mxGeometry relative="1" as="geometry">
            <mxPoint x="414" y="1110" as="targetPoint" />
          </mxGeometry>
        </mxCell>
        <mxCell id="QtfCz6NtTxin8dq7Kua--31" value="" style="endArrow=none;html=1;rounded=0;" edge="1" parent="1" source="QtfCz6NtTxin8dq7Kua--34">
          <mxGeometry width="50" height="50" relative="1" as="geometry">
            <mxPoint x="414" y="1080" as="sourcePoint" />
            <mxPoint x="560" y="1080" as="targetPoint" />
          </mxGeometry>
        </mxCell>
        <mxCell id="QtfCz6NtTxin8dq7Kua--32" value="" style="endArrow=none;html=1;rounded=0;" edge="1" parent="1">
          <mxGeometry width="50" height="50" relative="1" as="geometry">
            <mxPoint x="560" y="1080" as="sourcePoint" />
            <mxPoint x="560" y="840" as="targetPoint" />
          </mxGeometry>
        </mxCell>
        <mxCell id="QtfCz6NtTxin8dq7Kua--33" value="" style="endArrow=none;html=1;rounded=0;" edge="1" parent="1">
          <mxGeometry width="50" height="50" relative="1" as="geometry">
            <mxPoint x="516" y="839.71" as="sourcePoint" />
            <mxPoint x="560" y="840" as="targetPoint" />
          </mxGeometry>
        </mxCell>
        <mxCell id="QtfCz6NtTxin8dq7Kua--35" value="" style="endArrow=none;html=1;rounded=0;" edge="1" parent="1" target="QtfCz6NtTxin8dq7Kua--34">
          <mxGeometry width="50" height="50" relative="1" as="geometry">
            <mxPoint x="414" y="1080" as="sourcePoint" />
            <mxPoint x="560" y="1080" as="targetPoint" />
          </mxGeometry>
        </mxCell>
        <mxCell id="QtfCz6NtTxin8dq7Kua--34" value="" style="shape=waypoint;sketch=0;fillStyle=solid;size=6;pointerEvents=1;points=[];fillColor=none;resizable=0;rotatable=0;perimeter=centerPerimeter;snapToPoint=1;" vertex="1" parent="1">
          <mxGeometry x="404" y="1070" width="20" height="20" as="geometry" />
        </mxCell>
        <mxCell id="QtfCz6NtTxin8dq7Kua--39" style="edgeStyle=orthogonalEdgeStyle;rounded=0;orthogonalLoop=1;jettySize=auto;html=1;exitX=0.5;exitY=1;exitDx=0;exitDy=0;exitPerimeter=0;entryX=0.5;entryY=0;entryDx=0;entryDy=0;" edge="1" parent="1" source="QtfCz6NtTxin8dq7Kua--36" target="QtfCz6NtTxin8dq7Kua--38">
          <mxGeometry relative="1" as="geometry" />
        </mxCell>
        <mxCell id="QtfCz6NtTxin8dq7Kua--36" value="Если команда &quot;парковка&quot; и&lt;div&gt;парковка не началась&lt;/div&gt;" style="strokeWidth=2;html=1;shape=mxgraph.flowchart.decision;whiteSpace=wrap;" vertex="1" parent="1">
          <mxGeometry x="309" y="1110" width="210" height="100" as="geometry" />
        </mxCell>
        <mxCell id="QtfCz6NtTxin8dq7Kua--41" style="edgeStyle=orthogonalEdgeStyle;rounded=0;orthogonalLoop=1;jettySize=auto;html=1;exitX=0.5;exitY=1;exitDx=0;exitDy=0;entryX=0.5;entryY=0;entryDx=0;entryDy=0;" edge="1" parent="1" source="QtfCz6NtTxin8dq7Kua--38" target="QtfCz6NtTxin8dq7Kua--40">
          <mxGeometry relative="1" as="geometry" />
        </mxCell>
        <mxCell id="QtfCz6NtTxin8dq7Kua--38" value="флаг парковки&lt;div&gt;park on&lt;/div&gt;" style="rounded=0;whiteSpace=wrap;html=1;" vertex="1" parent="1">
          <mxGeometry x="354" y="1260" width="120" height="60" as="geometry" />
        </mxCell>
        <mxCell id="QtfCz6NtTxin8dq7Kua--40" value="движение вперед" style="rounded=0;whiteSpace=wrap;html=1;" vertex="1" parent="1">
          <mxGeometry x="354" y="1380" width="120" height="60" as="geometry" />
        </mxCell>
        <mxCell id="QtfCz6NtTxin8dq7Kua--42" value="park on" style="strokeWidth=2;html=1;shape=mxgraph.flowchart.decision;whiteSpace=wrap;" vertex="1" parent="1">
          <mxGeometry x="309" y="1500" width="210" height="100" as="geometry" />
        </mxCell>
        <mxCell id="QtfCz6NtTxin8dq7Kua--43" style="edgeStyle=orthogonalEdgeStyle;rounded=0;orthogonalLoop=1;jettySize=auto;html=1;exitX=0.5;exitY=1;exitDx=0;exitDy=0;entryX=0.5;entryY=0;entryDx=0;entryDy=0;entryPerimeter=0;" edge="1" parent="1" source="QtfCz6NtTxin8dq7Kua--40" target="QtfCz6NtTxin8dq7Kua--42">
          <mxGeometry relative="1" as="geometry" />
        </mxCell>
        <mxCell id="QtfCz6NtTxin8dq7Kua--47" style="edgeStyle=orthogonalEdgeStyle;rounded=0;orthogonalLoop=1;jettySize=auto;html=1;exitX=0.5;exitY=1;exitDx=0;exitDy=0;exitPerimeter=0;entryX=0.5;entryY=0;entryDx=0;entryDy=0;" edge="1" parent="1" source="QtfCz6NtTxin8dq7Kua--44" target="QtfCz6NtTxin8dq7Kua--46">
          <mxGeometry relative="1" as="geometry" />
        </mxCell>
        <mxCell id="QtfCz6NtTxin8dq7Kua--44" value="расстояние &amp;gt; 10&lt;div&gt;и&lt;/div&gt;&lt;div&gt;расстояние &amp;lt; 30&lt;/div&gt;" style="strokeWidth=2;html=1;shape=mxgraph.flowchart.decision;whiteSpace=wrap;" vertex="1" parent="1">
          <mxGeometry x="309" y="1654" width="210" height="100" as="geometry" />
        </mxCell>
        <mxCell id="QtfCz6NtTxin8dq7Kua--45" style="edgeStyle=orthogonalEdgeStyle;rounded=0;orthogonalLoop=1;jettySize=auto;html=1;exitX=0.5;exitY=1;exitDx=0;exitDy=0;exitPerimeter=0;entryX=0.5;entryY=0;entryDx=0;entryDy=0;entryPerimeter=0;" edge="1" parent="1" source="QtfCz6NtTxin8dq7Kua--42" target="QtfCz6NtTxin8dq7Kua--44">
          <mxGeometry relative="1" as="geometry" />
        </mxCell>
        <mxCell id="QtfCz6NtTxin8dq7Kua--46" value="движение с пониженной скоростью" style="rounded=0;whiteSpace=wrap;html=1;" vertex="1" parent="1">
          <mxGeometry x="354" y="1800" width="120" height="60" as="geometry" />
        </mxCell>
        <mxCell id="QtfCz6NtTxin8dq7Kua--55" style="edgeStyle=orthogonalEdgeStyle;rounded=0;orthogonalLoop=1;jettySize=auto;html=1;exitX=0.5;exitY=1;exitDx=0;exitDy=0;exitPerimeter=0;" edge="1" parent="1" source="QtfCz6NtTxin8dq7Kua--48" target="QtfCz6NtTxin8dq7Kua--50">
          <mxGeometry relative="1" as="geometry" />
        </mxCell>
        <mxCell id="QtfCz6NtTxin8dq7Kua--48" value="расстояние &amp;lt; мин." style="strokeWidth=2;html=1;shape=mxgraph.flowchart.decision;whiteSpace=wrap;" vertex="1" parent="1">
          <mxGeometry x="309" y="2010" width="210" height="100" as="geometry" />
        </mxCell>
        <mxCell id="QtfCz6NtTxin8dq7Kua--49" style="edgeStyle=orthogonalEdgeStyle;rounded=0;orthogonalLoop=1;jettySize=auto;html=1;exitX=0.5;exitY=1;exitDx=0;exitDy=0;entryX=0.5;entryY=0;entryDx=0;entryDy=0;entryPerimeter=0;" edge="1" parent="1" source="QtfCz6NtTxin8dq7Kua--46" target="QtfCz6NtTxin8dq7Kua--48">
          <mxGeometry relative="1" as="geometry" />
        </mxCell>
        <mxCell id="QtfCz6NtTxin8dq7Kua--56" style="edgeStyle=orthogonalEdgeStyle;rounded=0;orthogonalLoop=1;jettySize=auto;html=1;exitX=0.5;exitY=1;exitDx=0;exitDy=0;" edge="1" parent="1" source="QtfCz6NtTxin8dq7Kua--50" target="QtfCz6NtTxin8dq7Kua--51">
          <mxGeometry relative="1" as="geometry" />
        </mxCell>
        <mxCell id="QtfCz6NtTxin8dq7Kua--50" value="стоп" style="rounded=0;whiteSpace=wrap;html=1;" vertex="1" parent="1">
          <mxGeometry x="354" y="2140" width="120" height="60" as="geometry" />
        </mxCell>
        <mxCell id="QtfCz6NtTxin8dq7Kua--51" value="конец" style="ellipse;whiteSpace=wrap;html=1;" vertex="1" parent="1">
          <mxGeometry x="354" y="2260" width="120" height="50" as="geometry" />
        </mxCell>
        <mxCell id="QtfCz6NtTxin8dq7Kua--52" value="" style="endArrow=none;html=1;rounded=0;" edge="1" parent="1">
          <mxGeometry width="50" height="50" relative="1" as="geometry">
            <mxPoint x="520" y="1160" as="sourcePoint" />
            <mxPoint x="630" y="1160" as="targetPoint" />
          </mxGeometry>
        </mxCell>
        <mxCell id="QtfCz6NtTxin8dq7Kua--53" value="" style="endArrow=none;html=1;rounded=0;" edge="1" parent="1">
          <mxGeometry width="50" height="50" relative="1" as="geometry">
            <mxPoint x="620" y="2240" as="sourcePoint" />
            <mxPoint x="630" y="1160" as="targetPoint" />
          </mxGeometry>
        </mxCell>
        <mxCell id="QtfCz6NtTxin8dq7Kua--54" value="" style="endArrow=none;html=1;rounded=0;" edge="1" parent="1">
          <mxGeometry width="50" height="50" relative="1" as="geometry">
            <mxPoint x="520" y="2060" as="sourcePoint" />
            <mxPoint x="540" y="2060" as="targetPoint" />
          </mxGeometry>
        </mxCell>
        <mxCell id="QtfCz6NtTxin8dq7Kua--57" value="" style="endArrow=none;html=1;rounded=0;" edge="1" parent="1">
          <mxGeometry width="50" height="50" relative="1" as="geometry">
            <mxPoint x="520" y="1550" as="sourcePoint" />
            <mxPoint x="570" y="1550" as="targetPoint" />
          </mxGeometry>
        </mxCell>
        <mxCell id="QtfCz6NtTxin8dq7Kua--58" value="" style="endArrow=none;html=1;rounded=0;" edge="1" parent="1">
          <mxGeometry width="50" height="50" relative="1" as="geometry">
            <mxPoint x="570" y="2240" as="sourcePoint" />
            <mxPoint x="570" y="1550" as="targetPoint" />
          </mxGeometry>
        </mxCell>
        <mxCell id="QtfCz6NtTxin8dq7Kua--59" value="" style="endArrow=none;html=1;rounded=0;" edge="1" parent="1" source="QtfCz6NtTxin8dq7Kua--60">
          <mxGeometry width="50" height="50" relative="1" as="geometry">
            <mxPoint x="430" y="2240" as="sourcePoint" />
            <mxPoint x="620" y="2240" as="targetPoint" />
          </mxGeometry>
        </mxCell>
        <mxCell id="QtfCz6NtTxin8dq7Kua--60" value="" style="shape=waypoint;sketch=0;fillStyle=solid;size=6;pointerEvents=1;points=[];fillColor=none;resizable=0;rotatable=0;perimeter=centerPerimeter;snapToPoint=1;" vertex="1" parent="1">
          <mxGeometry x="404" y="2230" width="20" height="20" as="geometry" />
        </mxCell>
        <mxCell id="QtfCz6NtTxin8dq7Kua--61" value="" style="endArrow=none;html=1;rounded=0;" edge="1" parent="1" source="QtfCz6NtTxin8dq7Kua--62">
          <mxGeometry width="50" height="50" relative="1" as="geometry">
            <mxPoint x="540" y="2230" as="sourcePoint" />
            <mxPoint x="540" y="2060" as="targetPoint" />
          </mxGeometry>
        </mxCell>
        <mxCell id="QtfCz6NtTxin8dq7Kua--62" value="" style="shape=waypoint;sketch=0;fillStyle=solid;size=6;pointerEvents=1;points=[];fillColor=none;resizable=0;rotatable=0;perimeter=centerPerimeter;snapToPoint=1;" vertex="1" parent="1">
          <mxGeometry x="530" y="2230" width="20" height="20" as="geometry" />
        </mxCell>
        <mxCell id="QtfCz6NtTxin8dq7Kua--63" value="" style="shape=waypoint;sketch=0;fillStyle=solid;size=6;pointerEvents=1;points=[];fillColor=none;resizable=0;rotatable=0;perimeter=centerPerimeter;snapToPoint=1;" vertex="1" parent="1">
          <mxGeometry x="560" y="2230" width="20" height="20" as="geometry" />
        </mxCell>
        <mxCell id="QtfCz6NtTxin8dq7Kua--67" value="" style="endArrow=none;html=1;rounded=0;entryX=1;entryY=0.5;entryDx=0;entryDy=0;entryPerimeter=0;" edge="1" parent="1" source="QtfCz6NtTxin8dq7Kua--68" target="QtfCz6NtTxin8dq7Kua--44">
          <mxGeometry width="50" height="50" relative="1" as="geometry">
            <mxPoint x="420" y="1930" as="sourcePoint" />
            <mxPoint x="540" y="1710" as="targetPoint" />
            <Array as="points">
              <mxPoint x="550" y="1930" />
              <mxPoint x="550" y="1704" />
            </Array>
          </mxGeometry>
        </mxCell>
        <mxCell id="QtfCz6NtTxin8dq7Kua--68" value="" style="shape=waypoint;sketch=0;fillStyle=solid;size=6;pointerEvents=1;points=[];fillColor=none;resizable=0;rotatable=0;perimeter=centerPerimeter;snapToPoint=1;" vertex="1" parent="1">
          <mxGeometry x="404" y="1920" width="20" height="20" as="geometry" />
        </mxCell>
      </root>
    </mxGraphModel>
  </diagram>
</mxfile>
